HIERARCHY
ROOT Hips
{
    OFFSET 0.000000 0.000000 0.000000
    CHANNELS 6 Xposition Yposition Zposition Zrotation Xrotation Yrotation
    JOINT Spine
    {
        OFFSET -0.000000 0.076824 0.000000
        CHANNELS 3 Zrotation Xrotation Yrotation
        JOINT Spine1
        {
            OFFSET -0.000000 0.205639 0.000000
            CHANNELS 3 Zrotation Xrotation Yrotation
            JOINT Neck
            {
                OFFSET -0.000000 0.204794 0.018618
                CHANNELS 3 Zrotation Xrotation Yrotation
                JOINT Head
                {
                    OFFSET -0.000000 0.131164 -0.018738
                    CHANNELS 3 Zrotation Xrotation Yrotation
                    End Site
                    {
                        OFFSET -0.000000 0.187377 0.000000
                    }
                }
            }
            JOINT LeftShoulder
            {
                OFFSET 0.037892 0.189814 -0.002396
                CHANNELS 3 Zrotation Xrotation Yrotation
                JOINT LeftArm
                {
                    OFFSET 0.104721 0.000000 0.000000
                    CHANNELS 3 Zrotation Xrotation Yrotation
                    JOINT LeftForeArm
                    {
                        OFFSET 0.316555 0.000000 0.000000
                        CHANNELS 3 Zrotation Xrotation Yrotation
                        JOINT LeftHand
                        {
                            OFFSET 0.270628 0.000000 0.000000
                            CHANNELS 3 Zrotation Xrotation Yrotation
                            JOINT LeftHandThumb1
                            {
                                OFFSET 0.023422 -0.014053 0.046844
                                CHANNELS 3 Zrotation Xrotation Yrotation
                                JOINT LeftHandThumb2
                                {
                                    OFFSET 0.028107 0.000000 0.000000
                                    CHANNELS 3 Zrotation Xrotation Yrotation
                                    JOINT LeftHandThumb3
                                    {
                                        OFFSET 0.028107 0.000000 0.000000
                                        CHANNELS 3 Zrotation Xrotation Yrotation
                                        End Site
                                        {
                                            OFFSET 0.026333 0.000000 0.000000
                                        }
                                    }
                                }
                            }
                            JOINT LeftHandIndex1
                            {
                                OFFSET 0.084320 0.000000 0.032791
                                CHANNELS 3 Zrotation Xrotation Yrotation
                                JOINT LeftHandIndex2
                                {
                                    OFFSET 0.046844 0.000000 0.000000
                                    CHANNELS 3 Zrotation Xrotation Yrotation
                                    JOINT LeftHandIndex3
                                    {
                                        OFFSET 0.023422 0.000000 0.000000
                                        CHANNELS 3 Zrotation Xrotation Yrotation
                                        End Site
                                        {
                                            OFFSET 0.021944 0.000000 0.000000
                                        }
                                    }
                                }
                            }
                            JOINT LeftHandMiddle1
                            {
                                OFFSET 0.084320 0.000000 0.010868
                                CHANNELS 3 Zrotation Xrotation Yrotation
                                JOINT LeftHandMiddle2
                                {
                                    OFFSET 0.051529 0.000000 0.000000
                                    CHANNELS 3 Zrotation Xrotation Yrotation
                                    JOINT LeftHandMiddle3
                                    {
                                        OFFSET 0.028107 0.000000 0.000000
                                        CHANNELS 3 Zrotation Xrotation Yrotation
                                        End Site
                                        {
                                            OFFSET 0.026333 0.000000 0.000000
                                        }
                                    }
                                }
                            }
                            JOINT LeftHandRing1
                            {
                                OFFSET 0.079635 0.000000 -0.010868
                                CHANNELS 3 Zrotation Xrotation Yrotation
                                JOINT LeftHandRing2
                                {
                                    OFFSET 0.046844 0.000000 0.000000
                                    CHANNELS 3 Zrotation Xrotation Yrotation
                                    JOINT LeftHandRing3
                                    {
                                        OFFSET 0.023422 0.000000 0.000000
                                        CHANNELS 3 Zrotation Xrotation Yrotation
                                        End Site
                                        {
                                            OFFSET 0.021944 0.000000 0.000000
                                        }
                                    }
                                }
                            }
                            JOINT LeftHandPinky1
                            {
                                OFFSET 0.074951 0.000000 -0.032791
                                CHANNELS 3 Zrotation Xrotation Yrotation
                                JOINT LeftHandPinky2
                                {
                                    OFFSET 0.037475 0.000000 0.000000
                                    CHANNELS 3 Zrotation Xrotation Yrotation
                                    JOINT LeftHandPinky3
                                    {
                                        OFFSET 0.018738 0.000000 0.000000
                                        CHANNELS 3 Zrotation Xrotation Yrotation
                                        End Site
                                        {
                                            OFFSET 0.017555 0.000000 0.000000
                                        }
                                    }
                                }
                            }
                        }
                    }
                }
            }
            JOINT RightShoulder
            {
                OFFSET -0.036963 0.189814 -0.002396
                CHANNELS 3 Zrotation Xrotation Yrotation
                JOINT RightArm
                {
                    OFFSET -0.104721 0.000000 0.000000
                    CHANNELS 3 Zrotation Xrotation Yrotation
                    JOINT RightForeArm
                    {
                        OFFSET -0.316555 0.000000 0.000000
                        CHANNELS 3 Zrotation Xrotation Yrotation
                        JOINT RightHand
                        {
                            OFFSET -0.270628 0.000000 0.000000
                            CHANNELS 3 Zrotation Xrotation Yrotation
                            JOINT RightHandThumb1
                            {
                                OFFSET -0.023422 -0.014053 0.046844
                                CHANNELS 3 Zrotation Xrotation Yrotation
                                JOINT RightHandThumb2
                                {
                                    OFFSET -0.028107 0.000000 0.000000
                                    CHANNELS 3 Zrotation Xrotation Yrotation
                                    JOINT RightHandThumb3
                                    {
                                        OFFSET -0.028107 0.000000 0.000000
                                        CHANNELS 3 Zrotation Xrotation Yrotation
                                        End Site
                                        {
                                            OFFSET -0.026333 0.000000 0.000000
                                        }
                                    }
                                }
                            }
                            JOINT RightHandIndex1
                            {
                                OFFSET -0.084320 0.000000 0.032791
                                CHANNELS 3 Zrotation Xrotation Yrotation
                                JOINT RightHandIndex2
                                {
                                    OFFSET -0.046844 0.000000 0.000000
                                    CHANNELS 3 Zrotation Xrotation Yrotation
                                    JOINT RightHandIndex3
                                    {
                                        OFFSET -0.023422 0.000000 0.000000
                                        CHANNELS 3 Zrotation Xrotation Yrotation
                                        End Site
                                        {
                                            OFFSET -0.021944 0.000000 0.000000
                                        }
                                    }
                                }
                            }
                            JOINT RightHandMiddle1
                            {
                                OFFSET -0.084320 0.000000 0.010868
                                CHANNELS 3 Zrotation Xrotation Yrotation
                                JOINT RightHandMiddle2
                                {
                                    OFFSET -0.051529 0.000000 0.000000
                                    CHANNELS 3 Zrotation Xrotation Yrotation
                                    JOINT RightHandMiddle3
                                    {
                                        OFFSET -0.028107 0.000000 0.000000
                                        CHANNELS 3 Zrotation Xrotation Yrotation
                                        End Site
                                        {
                                            OFFSET -0.026333 0.000000 0.000000
                                        }
                                    }
                                }
                            }
                            JOINT RightHandRing1
                            {
                                OFFSET -0.079635 0.000000 -0.010868
                                CHANNELS 3 Zrotation Xrotation Yrotation
                                JOINT RightHandRing2
                                {
                                    OFFSET -0.046844 0.000000 0.000000
                                    CHANNELS 3 Zrotation Xrotation Yrotation
                                    JOINT RightHandRing3
                                    {
                                        OFFSET -0.023422 0.000000 0.000000
                                        CHANNELS 3 Zrotation Xrotation Yrotation
                                        End Site
                                        {
                                            OFFSET -0.021944 0.000000 0.000000
                                        }
                                    }
                                }
                            }
                            JOINT RightHandPinky1
                            {
                                OFFSET -0.074951 0.000000 -0.032791
                                CHANNELS 3 Zrotation Xrotation Yrotation
                                JOINT RightHandPinky2
                                {
                                    OFFSET -0.037475 0.000000 0.000000
                                    CHANNELS 3 Zrotation Xrotation Yrotation
                                    JOINT RightHandPinky3
                                    {
                                        OFFSET -0.018738 0.000000 0.000000
                                        CHANNELS 3 Zrotation Xrotation Yrotation
                                        End Site
                                        {
                                            OFFSET -0.017555 0.000000 0.000000
                                        }
                                    }
                                }
                            }
                        }
                    }
                }
            }
        }
    }
    JOINT LeftUpLeg
    {
        OFFSET 0.093688 0.000000 0.000000
        CHANNELS 3 Zrotation Xrotation Yrotation
        JOINT LeftLeg
        {
            OFFSET -0.000000 -0.377687 0.000000
            CHANNELS 3 Zrotation Xrotation Yrotation
            JOINT LeftFoot
            {
                OFFSET -0.000000 -0.399231 0.000000
                CHANNELS 3 Zrotation Xrotation Yrotation
                JOINT LeftToeBase
                {
                    OFFSET -0.000000 -0.060897 0.140533
                    CHANNELS 3 Zrotation Xrotation Yrotation
                    End Site
                    {
                        OFFSET -0.000000 0.000000 0.037475
                    }
                }
            }
        }
    }
    JOINT RightUpLeg
    {
        OFFSET -0.093688 0.000000 0.000000
        CHANNELS 3 Zrotation Xrotation Yrotation
        JOINT RightLeg
        {
            OFFSET -0.000000 -0.377687 0.000000
            CHANNELS 3 Zrotation Xrotation Yrotation
            JOINT RightFoot
            {
                OFFSET -0.000000 -0.399231 0.000000
                CHANNELS 3 Zrotation Xrotation Yrotation
                JOINT RightToeBase
                {
                    OFFSET -0.000000 -0.060897 0.140533
                    CHANNELS 3 Zrotation Xrotation Yrotation
                    End Site
                    {
                        OFFSET -0.000000 0.000000 0.037475
                    }
                }
            }
        }
    }
}
MOTION
Frames:    7
Frame Time:    0.040000
-0.200007    0.866055    0.105376    0.254733    3.764877    -3.192733    -0.77347    -14.430594    0.277618    -0.332696    2.421458    0.132419    8.439166    19.657082    0.68261    -11.637922    -4.918136    -1.171686    19.981052    -0.545487    -5.408408    -15.122552    5.251336    -8.452162    0.0    26.437113    9.896833    24.605049    -13.699858    0.0    1.379349    48.306396    71.176941    -0.0    0.0    42.552197    -0.0    0.0    85.104385    0.0    0.0    0.0    0.0    0.0    0.0    0.0    0.0    0.0    0.0    0.0    0.0    0.0    0.0    0.0    0.0    0.0    0.0    0.0    0.0    0.0    0.0    0.0    0.0    0.0    0.0    0.0    0.0    0.0    0.0    0.0    0.0    0.0    0.0    0.0    0.0    -12.549162    -0.17659    -3.346591    12.993007    -3.00156    13.18282    0.0    11.821478    -8.460605    -17.167519    -1.522279    0.0    -0.740761    -0.449182    0.089194    0.0    0.0    0.0    0.0    0.0    0.0    0.0    0.0    0.0    0.0    0.0    0.0    0.0    0.0    0.0    0.357309    -0.018043    -1.434458    0.715374    0.0    -0.0    0.357686    0.0    -0.0    0.714053    -0.045025    -2.868776    1.430749    0.0    -0.0    0.715376    0.0    -0.0    1.080783    -0.082154    -4.346354    2.167801    0.0    -0.0    1.083901    0.0    -0.0    10.396221    2.107498    1.048696    -0.2    2.726597    1.0    -3.16159    -13.274133    2.495963    1.204123    4.778779    -2.793227    -12.125361    6.925739    -0.827515    0.2    0.0    -1.0    5.0    -6.804472    0.0    0.256682    6.589432    -1.193579
-0.200073    0.865992    0.105506    0.244513    3.746485    -3.205795    -0.762057    -14.39912    0.318106    -0.331071    2.39641    0.144968    8.412234    19.462984    0.813875    -11.705075    -4.835434    -1.055947    20.03112    -0.550741    -5.392858    -15.157969    5.170889    -8.519056    0.0    26.672077    9.953501    24.784521    -13.813902    0.0    1.243466    48.332291    71.286751    -0.0    0.0    42.590199    -0.0    0.0    85.180397    0.0    0.0    0.0    0.0    0.0    0.0    0.0    0.0    0.0    0.0    0.0    0.0    0.0    0.0    0.0    0.0    0.0    0.0    0.0    0.0    0.0    0.0    0.0    0.0    0.0    0.0    0.0    0.0    0.0    0.0    0.0    0.0    0.0    0.0    0.0    0.0    -12.547345    -0.156754    -3.411457    12.962419    -2.915894    13.079231    0.0    12.032248    -8.66324    -17.251551    -2.325157    0.0    -1.23145    -0.314601    -0.413881    0.0    0.0    -0.293754    0.0    0.0    -0.587508    0.0    0.0    0.0    0.0    0.0    0.0    0.0    0.0    0.0    0.504536    -0.026052    -1.466648    1.01019    0.0    -0.0    0.505091    0.0    -0.0    1.008239    -0.065007    -2.93301    2.02038    0.0    -0.0    1.010193    0.0    -0.0    1.525989    -0.118609    -4.44339    3.061181    0.0    -0.0    1.53059    0.0    -0.0    10.408806    2.146297    0.991381    -0.2    2.710563    1.0    -3.136951    -13.274509    2.608019    1.211534    4.752749    -2.816323    -12.11684    6.880561    -0.815513    0.2    0.0    -1.0    5.0    -6.964883    0.0    0.249722    6.537902    -1.169475
-0.200104    0.865996    0.10556    0.24249    3.759778    -3.197851    -0.796911    -14.438268    0.296803    -0.273393    2.451934    0.138443    8.201029    19.455172    1.018727    -11.511473    -5.14956    -0.844564    20.048405    -0.561491    -5.351561    -15.204034    5.263829    -8.544157    0.0    26.628458    9.92363    24.649597    -13.827785    0.0    1.284536    48.323627    71.251945    -0.0    0.0    42.578159    -0.0    0.0    85.156319    0.0    0.0    0.0    0.0    0.0    0.0    0.0    0.0    0.0    0.0    0.0    0.0    0.0    0.0    0.0    0.0    0.0    0.0    0.0    0.0    0.0    0.0    0.0    0.0    0.0    0.0    0.0    0.0    0.0    0.0    0.0    0.0    0.0    0.0    0.0    0.0    -12.509853    -0.209111    -3.369475    12.967507    -2.87331    13.0525    0.0    12.022762    -8.658268    -17.655487    -2.129383    0.0    -1.09084    -0.862537    0.38813    0.0    0.0    0.0    0.0    0.0    0.0    0.0    0.0    0.0    0.0    0.0    0.0    0.0    0.0    0.0    0.774681    -0.039224    -1.438028    1.551013    0.0    -0.0    0.775507    0.0    -0.0    1.548135    -0.097873    -2.875394    3.102027    0.0    -0.0    1.551014    0.0    -0.0    2.34323    -0.178565    -4.355355    4.700041    0.0    -0.0    2.35002    0.0    -0.0    10.413529    2.146293    0.967219    -0.2    2.686372    1.0    -3.177331    -13.267775    2.500808    1.205388    4.774993    -2.79708    -12.11587    6.877266    -0.815276    0.2    0.0    -1.0    5.0    -6.934604    0.0    0.251393    6.591097    -1.176108
-0.20012    0.865982    0.105597    0.238192    3.801255    -3.171049    -0.868674    -14.420928    0.341102    -0.128585    2.338835    0.153023    8.234321    19.544693    0.968698    -11.759495    -5.576365    -0.977829    20.008429    -0.539052    -5.43583    -15.189543    5.183029    -8.572447    0.0    26.487665    9.882154    24.654596    -13.793783    0.0    1.536957    48.422626    71.3246    -0.0    0.0    42.600201    -0.0    0.0    85.200409    0.0    0.0    0.0    0.0    0.0    0.0    0.0    0.0    0.0    0.0    0.0    0.0    0.0    0.0    0.0    0.0    0.0    0.0    0.0    0.0    0.0    0.0    0.0    0.0    0.0    0.0    0.0    0.0    0.0    0.0    0.0    0.0    0.0    0.0    0.0    0.0    -12.554908    -0.202765    -3.475488    12.99802    -2.916207    13.122733    0.0    12.22045    -8.63048    -17.676231    -2.13491    0.0    -1.034942    -0.894884    0.467709    0.0    0.0    0.0    0.0    0.0    0.0    0.0    0.0    0.0    0.0    0.0    0.0    0.0    0.0    0.0    0.731308    -0.035296    -1.370901    1.464033    0.0    -0.0    0.732017    0.0    -0.0    1.461564    -0.088075    -2.741241    2.928067    0.0    -0.0    1.464033    0.0    -0.0    2.212406    -0.160697    -4.152287    4.436464    0.0    -0.0    2.218232    0.0    -0.0    10.417562    2.111567    0.961781    -0.2    2.666238    1.0    -3.176377    -13.25815    2.460204    1.193676    4.796344    -2.763291    -12.10109    6.861515    -0.832569    0.2    0.0    -1.0    5.0    -6.926416    0.0    0.260924    6.566089    -1.207157
-0.200056    0.865961    0.105629    0.260545    3.841826    -3.1553    -0.881485    -14.412723    0.342625    -0.129293    2.237716    0.154232    8.149767    19.483479    0.96921    -11.628467    -5.681086    -0.969877    20.039059    -0.530651    -5.399135    -15.164694    5.159398    -8.59077    0.0    26.647169    9.920895    24.883816    -13.953322    0.0    0.641498    48.390442    71.67041    -0.0    0.0    42.724049    -0.0    0.0    85.448105    0.0    0.0    0.0    0.0    0.0    0.0    0.0    0.0    0.0    0.0    0.0    0.0    0.0    0.0    0.0    0.0    0.0    0.0    0.0    0.0    0.0    0.0    0.0    0.0    0.0    0.0    0.0    0.0    0.0    0.0    0.0    0.0    0.0    0.0    0.0    0.0    -12.535827    -0.194956    -3.467966    13.046305    -2.935319    13.286829    0.0    12.042028    -8.52164    -17.420403    -2.908307    0.0    1.254593    0.562772    0.099997    0.0    0.0    0.0    0.0    0.0    0.0    0.0    0.0    0.0    0.0    0.0    0.0    0.0    0.0    0.0    0.77792    -0.040529    -1.479595    1.557596    0.0    -0.0    0.778798    0.0    -0.0    1.554535    -0.101126    -2.958505    3.115192    0.0    -0.0    1.557596    0.0    -0.0    2.352775    -0.184496    -4.481232    4.719987    0.0    -0.0    2.359993    0.0    -0.0    10.396797    2.083536    0.935594    -0.2    2.638332    1.0    -3.134043    -13.24826    2.600133    1.210867    4.79    -2.809501    -12.115381    6.857231    -0.871047    0.2    0.0    -1.0    5.0    -6.922156    0.0    0.236413    6.53556    -1.125317
-0.199963    0.865974    0.105725    0.265859    3.868249    -3.165405    -0.88143    -14.431282    0.38568    -0.097378    2.19952    0.167597    8.103021    19.165264    1.07194    -11.610262    -5.420732    -0.860009    20.039473    -0.512157    -5.367883    -15.088919    5.05782    -8.640046    0.0    26.878336    9.90641    25.195213    -13.701558    0.0    0.573188    48.318546    71.564629    -0.0    0.0    42.68998    -0.0    0.0    85.379959    0.0    0.0    0.0    0.0    0.0    0.0    0.0    0.0    0.0    0.0    0.0    0.0    0.0    0.0    0.0    0.0    0.0    0.0    0.0    0.0    0.0    0.0    0.0    0.0    0.0    0.0    0.0    0.0    0.0    0.0    0.0    0.0    0.0    0.0    0.0    0.0    -12.54095    -0.203178    -3.491655    13.123292    -2.931125    13.214442    0.0    11.794365    -8.637798    -17.638264    0.100483    0.0    -4.22753    -2.527724    0.366544    0.0    0.0    0.0    0.0    0.0    0.0    0.0    0.0    0.0    0.0    0.0    0.0    0.0    0.0    0.0    0.707171    -0.042257    -1.696616    1.41644    0.0    -0.0    0.70822    0.0    -0.0    1.412781    -0.105429    -3.392583    2.832881    0.0    -0.0    1.416441    0.0    -0.0    2.137491    -0.192322    -5.138998    4.292244    0.0    -0.0    2.146122    0.0    -0.0    10.387769    2.076673    0.958198    -0.2    2.617716    1.0    -3.183222    -13.237885    2.524029    1.230558    4.75646    -2.866043    -12.129318    6.87394    -0.82634    0.2    0.0    -1.0    5.0    -6.903755    0.0    0.220287    6.563794    -1.072529
-0.199812    0.865941    0.105774    0.286994    3.882143    -3.170178    -0.849579    -14.435751    0.404942    -0.111921    2.164686    0.173205    7.938748    19.057409    1.145919    -11.398398    -5.383973    -0.75191    20.041786    -0.448499    -5.290563    -15.055122    5.083887    -8.686677    0.0    26.870241    9.930167    24.918821    -13.753807    0.0    0.751999    48.427078    71.689522    -0.0    0.0    42.728958    -0.0    0.0    85.457916    0.0    0.0    0.0    0.0    0.0    0.0    0.0    0.0    0.0    0.0    0.0    0.0    0.0    0.0    0.0    0.0    0.0    0.0    0.0    0.0    0.0    0.0    0.0    0.0    0.0    0.0    0.0    0.0    0.0    0.0    0.0    0.0    0.0    0.0    0.0    0.0    -12.531575    -0.197365    -3.474289    13.123518    -2.925117    13.332164    0.0    11.746281    -8.473769    -17.564665    -0.838755    0.0    -0.268294    -1.364111    1.602652    0.0    0.0    0.0    0.0    0.0    0.0    0.0    0.0    0.0    0.0    0.0    0.0    0.0    0.0    0.0    0.682251    -0.0249    -1.037019    1.365258    0.0    -0.0    0.682629    0.0    -0.0    1.363941    -0.062141    -2.073668    2.730517    0.0    -0.0    1.365259    0.0    -0.0    2.065464    -0.1134    -3.14119    4.137147    0.0    -0.0    2.068573    0.0    -0.0    10.354564    2.063883    0.903987    -0.2    2.619163    1.0    -3.160812    -13.278122    2.509062    1.220188    4.810903    -2.831249    -12.142882    6.842474    -0.875076    0.2    0.0    -1.0    5.0    -6.921558    0.0    0.237963    6.609285    -1.132056
